<svg xmlns="http://www.w3.org/2000/svg" viewBox="0 0 4747.25 816" width="4747.25" height="816" style="--bg:#1a1b26;--fg:#a9b1d6;--line:#3d59a1;--accent:#7aa2f7;--muted:#565f89;background:var(--bg)">
<style>
  @import url('https://fonts.googleapis.com/css2?family=Inter:wght@400;500;600;700&amp;display=swap');
  text { font-family: 'Inter', system-ui, sans-serif; }
  svg {
    /* Derived from --bg and --fg (overridable via --line, --accent, etc.) */
    --_text:          var(--fg);
    --_text-sec:      var(--muted, color-mix(in srgb, var(--fg) 60%, var(--bg)));
    --_text-muted:    var(--muted, color-mix(in srgb, var(--fg) 40%, var(--bg)));
    --_text-faint:    color-mix(in srgb, var(--fg) 25%, var(--bg));
    --_line:          var(--line, color-mix(in srgb, var(--fg) 30%, var(--bg)));
    --_arrow:         var(--accent, color-mix(in srgb, var(--fg) 50%, var(--bg)));
    --_node-fill:     var(--surface, color-mix(in srgb, var(--fg) 3%, var(--bg)));
    --_node-stroke:   var(--border, color-mix(in srgb, var(--fg) 20%, var(--bg)));
    --_group-fill:    var(--bg);
    --_group-hdr:     color-mix(in srgb, var(--fg) 5%, var(--bg));
    --_inner-stroke:  color-mix(in srgb, var(--fg) 12%, var(--bg));
    --_key-badge:     color-mix(in srgb, var(--fg) 10%, var(--bg));
  }
</style>
<defs>
  <marker id="arrowhead" markerWidth="8" markerHeight="4.8" refX="8" refY="2.4" orient="auto">
    <polygon points="0 0, 8 2.4, 0 4.8" fill="var(--_arrow)" />
  </marker>
  <marker id="arrowhead-start" markerWidth="8" markerHeight="4.8" refX="0" refY="2.4" orient="auto-start-reverse">
    <polygon points="8 0, 0 2.4, 8 4.8" fill="var(--_arrow)" />
  </marker>
</defs>
<rect x="308.63750000000005" y="40" width="4039.2625000000003" height="112" rx="0" ry="0" fill="var(--_group-fill)" stroke="var(--_node-stroke)" stroke-width="1" />
<rect x="308.63750000000005" y="40" width="4039.2625000000003" height="28" rx="0" ry="0" fill="var(--_group-hdr)" stroke="var(--_node-stroke)" stroke-width="1" />
<text x="320.63750000000005" y="54" dy="0.35em" font-size="12" font-weight="600" fill="var(--_text-sec)">&quot;🌳 Tree-sitter Core&quot;</text>
<rect x="40" y="196" width="683.75" height="424" rx="0" ry="0" fill="var(--_group-fill)" stroke="var(--_node-stroke)" stroke-width="1" />
<rect x="40" y="196" width="683.75" height="28" rx="0" ry="0" fill="var(--_group-hdr)" stroke="var(--_node-stroke)" stroke-width="1" />
<text x="52" y="210" dy="0.35em" font-size="12" font-weight="600" fill="var(--_text-sec)">&quot;🦀 Rust Parser&quot;</text>
<rect x="743.7500000000002" y="196" width="640.8499999999999" height="424" rx="0" ry="0" fill="var(--_group-fill)" stroke="var(--_node-stroke)" stroke-width="1" />
<rect x="743.7500000000002" y="196" width="640.8499999999999" height="28" rx="0" ry="0" fill="var(--_group-hdr)" stroke="var(--_node-stroke)" stroke-width="1" />
<text x="755.7500000000002" y="210" dy="0.35em" font-size="12" font-weight="600" fill="var(--_text-sec)">&quot;🐍 Python Parser&quot;</text>
<rect x="1404.6" y="196" width="683.75" height="424" rx="0" ry="0" fill="var(--_group-fill)" stroke="var(--_node-stroke)" stroke-width="1" />
<rect x="1404.6" y="196" width="683.75" height="28" rx="0" ry="0" fill="var(--_group-hdr)" stroke="var(--_node-stroke)" stroke-width="1" />
<text x="1416.6" y="210" dy="0.35em" font-size="12" font-weight="600" fill="var(--_text-sec)">&quot;📜 JavaScript Parser&quot;</text>
<rect x="2108.35" y="196" width="855.3500000000004" height="424" rx="0" ry="0" fill="var(--_group-fill)" stroke="var(--_node-stroke)" stroke-width="1" />
<rect x="2108.35" y="196" width="855.3500000000004" height="28" rx="0" ry="0" fill="var(--_group-hdr)" stroke="var(--_node-stroke)" stroke-width="1" />
<text x="2120.35" y="210" dy="0.35em" font-size="12" font-weight="600" fill="var(--_text-sec)">&quot;📘 TypeScript Parser&quot;</text>
<rect x="2983.7" y="196" width="855.35" height="424" rx="0" ry="0" fill="var(--_group-fill)" stroke="var(--_node-stroke)" stroke-width="1" />
<rect x="2983.7" y="196" width="855.35" height="28" rx="0" ry="0" fill="var(--_group-hdr)" stroke="var(--_node-stroke)" stroke-width="1" />
<text x="2995.7" y="210" dy="0.35em" font-size="12" font-weight="600" fill="var(--_text-sec)">&quot;🐹 Go Parser&quot;</text>
<rect x="3859.0500000000006" y="196" width="848.2000000000002" height="424" rx="0" ry="0" fill="var(--_group-fill)" stroke="var(--_node-stroke)" stroke-width="1" />
<rect x="3859.0500000000006" y="196" width="848.2000000000002" height="28" rx="0" ry="0" fill="var(--_group-hdr)" stroke="var(--_node-stroke)" stroke-width="1" />
<text x="3871.0500000000006" y="210" dy="0.35em" font-size="12" font-weight="600" fill="var(--_text-sec)">&quot;☕ Java Parser&quot;</text>
<rect x="308.6374999999998" y="664" width="4058.862500000001" height="112" rx="0" ry="0" fill="var(--_group-fill)" stroke="var(--_node-stroke)" stroke-width="1" />
<rect x="308.6374999999998" y="664" width="4058.862500000001" height="28" rx="0" ry="0" fill="var(--_group-hdr)" stroke="var(--_node-stroke)" stroke-width="1" />
<text x="320.6374999999998" y="678" dy="0.35em" font-size="12" font-weight="600" fill="var(--_text-sec)">&quot;🎯 Common Symbol Extraction&quot;</text>
<polyline points="2172.3625,132 2172.3625,152 381.875,152 381.875,252" fill="none" stroke="var(--_line)" stroke-width="0.75" marker-end="url(#arrowhead)" />
<polyline points="2172.3625,132 2172.3625,152 1064.1750000000002,152 1064.1750000000002,252" fill="none" stroke="var(--_line)" stroke-width="0.75" marker-end="url(#arrowhead)" />
<polyline points="2172.3625,132 2172.3625,152 1746.475,152 1746.475,252" fill="none" stroke="var(--_line)" stroke-width="0.75" marker-end="url(#arrowhead)" />
<polyline points="2172.3625,132 2172.3625,152 2536.025,152 2536.025,252" fill="none" stroke="var(--_line)" stroke-width="0.75" marker-end="url(#arrowhead)" />
<polyline points="2172.3625,132 2172.3625,152 3411.375,152 3411.375,252" fill="none" stroke="var(--_line)" stroke-width="0.75" marker-end="url(#arrowhead)" />
<polyline points="2172.3625,132 2172.3625,152 4283.150000000001,152 4283.150000000001,252" fill="none" stroke="var(--_line)" stroke-width="0.75" marker-end="url(#arrowhead)" />
<polyline points="381.875,288 381.875,408" fill="none" stroke="var(--_line)" stroke-width="0.75" marker-end="url(#arrowhead)" />
<polyline points="1064.1750000000002,288 1064.1750000000002,408" fill="none" stroke="var(--_line)" stroke-width="0.75" marker-end="url(#arrowhead)" />
<polyline points="1746.475,288 1746.475,408" fill="none" stroke="var(--_line)" stroke-width="0.75" marker-end="url(#arrowhead)" />
<polyline points="2536.025,288 2536.025,408" fill="none" stroke="var(--_line)" stroke-width="0.75" marker-end="url(#arrowhead)" />
<polyline points="3411.375,288 3411.375,408" fill="none" stroke="var(--_line)" stroke-width="0.75" marker-end="url(#arrowhead)" />
<polyline points="4283.150000000001,288 4283.150000000001,408" fill="none" stroke="var(--_line)" stroke-width="0.75" marker-end="url(#arrowhead)" />
<polyline points="381.875,444 381.875,564" fill="none" stroke="var(--_line)" stroke-width="0.75" marker-end="url(#arrowhead)" />
<polyline points="1064.1750000000002,444 1064.1750000000002,564" fill="none" stroke="var(--_line)" stroke-width="0.75" marker-end="url(#arrowhead)" />
<polyline points="1746.475,444 1746.475,564" fill="none" stroke="var(--_line)" stroke-width="0.75" marker-end="url(#arrowhead)" />
<polyline points="2536.025,444 2536.025,564" fill="none" stroke="var(--_line)" stroke-width="0.75" marker-end="url(#arrowhead)" />
<polyline points="3411.375,444 3411.375,564" fill="none" stroke="var(--_line)" stroke-width="0.75" marker-end="url(#arrowhead)" />
<polyline points="4283.150000000001,444 4283.150000000001,564" fill="none" stroke="var(--_line)" stroke-width="0.75" marker-end="url(#arrowhead)" />
<polyline points="381.875,600 381.875,738 1692.675,738" fill="none" stroke="var(--_line)" stroke-width="0.75" marker-end="url(#arrowhead)" />
<polyline points="1064.1750000000002,600 1064.1750000000002,738 1692.675,738" fill="none" stroke="var(--_line)" stroke-width="0.75" marker-end="url(#arrowhead)" />
<polyline points="1746.475,600 1746.475,738 1692.675,738" fill="none" stroke="var(--_line)" stroke-width="0.75" marker-end="url(#arrowhead)" />
<polyline points="2536.025,600 2536.025,738 2589.825,738" fill="none" stroke="var(--_line)" stroke-width="0.75" marker-end="url(#arrowhead)" />
<polyline points="3411.375,600 3411.375,738 2589.825,738" fill="none" stroke="var(--_line)" stroke-width="0.75" marker-end="url(#arrowhead)" />
<polyline points="4283.150000000001,600 4283.150000000001,738 2589.825,738" fill="none" stroke="var(--_line)" stroke-width="0.75" marker-end="url(#arrowhead)" />
<rect x="2084.8625" y="96" width="175" height="36" rx="0" ry="0" fill="#ff6b6b" stroke="#ff6b6b" stroke-width="0.75" />
<rect x="308.675" y="252" width="146.4" height="36" rx="0" ry="0" fill="#1a1a2e" stroke="#ff8c00" stroke-width="0.75" />
<rect x="62" y="408" width="639.75" height="36" rx="0" ry="0" fill="#1a1a2e" stroke="#ff8c00" stroke-width="0.75" />
<rect x="122.77499999999998" y="564" width="518.2" height="36" rx="0" ry="0" fill="#1a1a2e" stroke="#ff8c00" stroke-width="0.75" />
<rect x="983.8250000000002" y="252" width="160.70000000000002" height="36" rx="0" ry="0" fill="#1a1a2e" stroke="#4caf50" stroke-width="0.75" />
<rect x="765.7500000000002" y="408" width="596.85" height="36" rx="0" ry="0" fill="#1a1a2e" stroke="#4caf50" stroke-width="0.75" />
<rect x="790.7750000000001" y="564" width="546.8000000000001" height="36" rx="0" ry="0" fill="#1a1a2e" stroke="#4caf50" stroke-width="0.75" />
<rect x="1651.8249999999998" y="252" width="189.3" height="36" rx="0" ry="0" fill="#1a1a2e" stroke="#ffc107" stroke-width="0.75" />
<rect x="1426.6" y="408" width="639.75" height="36" rx="0" ry="0" fill="#1a1a2e" stroke="#ffc107" stroke-width="0.75" />
<rect x="1501.675" y="564" width="489.6" height="36" rx="0" ry="0" fill="#1a1a2e" stroke="#ffc107" stroke-width="0.75" />
<rect x="2441.375" y="252" width="189.3" height="36" rx="0" ry="0" fill="#1a1a2e" stroke="#00d9ff" stroke-width="0.75" />
<rect x="2130.35" y="408" width="811.35" height="36" rx="0" ry="0" fill="#1a1a2e" stroke="#00d9ff" stroke-width="0.75" />
<rect x="2248.325" y="564" width="575.4000000000001" height="36" rx="0" ry="0" fill="#1a1a2e" stroke="#00d9ff" stroke-width="0.75" />
<rect x="3345.325" y="252" width="132.10000000000002" height="36" rx="0" ry="0" fill="#1a1a2e" stroke="#00add8" stroke-width="0.75" />
<rect x="3005.7" y="408" width="811.35" height="36" rx="0" ry="0" fill="#1a1a2e" stroke="#00add8" stroke-width="0.75" />
<rect x="3134.4" y="564" width="553.95" height="36" rx="0" ry="0" fill="#1a1a2e" stroke="#00add8" stroke-width="0.75" />
<rect x="4209.950000000001" y="252" width="146.4" height="36" rx="0" ry="0" fill="#1a1a2e" stroke="#ff5722" stroke-width="0.75" />
<rect x="3881.0500000000006" y="408" width="804.2" height="36" rx="0" ry="0" fill="#1a1a2e" stroke="#ff5722" stroke-width="0.75" />
<rect x="4002.6000000000004" y="564" width="561.1" height="36" rx="0" ry="0" fill="#1a1a2e" stroke="#ff5722" stroke-width="0.75" />
<rect x="1692.675" y="720" width="897.1500000000001" height="36" rx="0" ry="0" fill="#2d2d44" stroke="#e94560" stroke-width="0.75" />
<text x="2172.3625" y="114" text-anchor="middle" dy="0.35em" font-size="13" font-weight="500" fill="#ffffff">&quot;tree-sitter = 0.24&quot;</text>
<text x="381.875" y="270" text-anchor="middle" dy="0.35em" font-size="13" font-weight="500" fill="#ff8c00">&quot;Language: Rust&quot;</text>
<text x="381.875" y="426" text-anchor="middle" dy="0.35em" font-size="13" font-weight="500" fill="#ff8c00">&quot;🎯 Queries:&lt;br/&gt;- function_item&lt;br/&gt;- impl_item&lt;br/&gt;- struct&lt;br/&gt;- enum&lt;br/&gt;- macro&quot;</text>
<text x="381.875" y="582" text-anchor="middle" dy="0.35em" font-size="13" font-weight="500" fill="#ff8c00">&quot;📍 Node Types:&lt;br/&gt;function_item, identifier,&lt;br/&gt;parameter, block&quot;</text>
<text x="1064.1750000000002" y="270" text-anchor="middle" dy="0.35em" font-size="13" font-weight="500" fill="#4caf50">&quot;Language: Python&quot;</text>
<text x="1064.1750000000002" y="426" text-anchor="middle" dy="0.35em" font-size="13" font-weight="500" fill="#4caf50">&quot;🎯 Queries:&lt;br/&gt;- function_definition&lt;br/&gt;- class_definition&lt;br/&gt;- assignment&quot;</text>
<text x="1064.1750000000002" y="582" text-anchor="middle" dy="0.35em" font-size="13" font-weight="500" fill="#4caf50">&quot;📍 Node Types:&lt;br/&gt;function_def, identifier,&lt;br/&gt;parameters, decorator&quot;</text>
<text x="1746.475" y="270" text-anchor="middle" dy="0.35em" font-size="13" font-weight="500" fill="#ffc107">&quot;Language: JavaScript&quot;</text>
<text x="1746.475" y="426" text-anchor="middle" dy="0.35em" font-size="13" font-weight="500" fill="#ffc107">&quot;🎯 Queries:&lt;br/&gt;- function_declaration&lt;br/&gt;- arrow_function&lt;br/&gt;- class_declaration&quot;</text>
<text x="1746.475" y="582" text-anchor="middle" dy="0.35em" font-size="13" font-weight="500" fill="#ffc107">&quot;📍 Node Types:&lt;br/&gt;function, identifier,&lt;br/&gt;formal_parameters&quot;</text>
<text x="2536.025" y="270" text-anchor="middle" dy="0.35em" font-size="13" font-weight="500" fill="#00d9ff">&quot;Language: TypeScript&quot;</text>
<text x="2536.025" y="426" text-anchor="middle" dy="0.35em" font-size="13" font-weight="500" fill="#00d9ff">&quot;🎯 Queries:&lt;br/&gt;- function_declaration&lt;br/&gt;- class_declaration&lt;br/&gt;- interface_declaration&lt;br/&gt;- type_alias&quot;</text>
<text x="2536.0249999999996" y="582" text-anchor="middle" dy="0.35em" font-size="13" font-weight="500" fill="#00d9ff">&quot;📍 Node Types:&lt;br/&gt;function_signature,&lt;br/&gt;type_annotation,&lt;br/&gt;identifier&quot;</text>
<text x="3411.375" y="270" text-anchor="middle" dy="0.35em" font-size="13" font-weight="500" fill="#00add8">&quot;Language: Go&quot;</text>
<text x="3411.375" y="426" text-anchor="middle" dy="0.35em" font-size="13" font-weight="500" fill="#00add8">&quot;🎯 Queries:&lt;br/&gt;- function_declaration&lt;br/&gt;- type_declaration&lt;br/&gt;- const_declaration&lt;br/&gt;- var_declaration&quot;</text>
<text x="3411.375" y="582" text-anchor="middle" dy="0.35em" font-size="13" font-weight="500" fill="#00add8">&quot;📍 Node Types:&lt;br/&gt;function_decl, identifier,&lt;br/&gt;parameter_list, block&quot;</text>
<text x="4283.150000000001" y="270" text-anchor="middle" dy="0.35em" font-size="13" font-weight="500" fill="#ff5722">&quot;Language: Java&quot;</text>
<text x="4283.150000000001" y="426" text-anchor="middle" dy="0.35em" font-size="13" font-weight="500" fill="#ff5722">&quot;🎯 Queries:&lt;br/&gt;- method_declaration&lt;br/&gt;- class_declaration&lt;br/&gt;- interface_declaration&lt;br/&gt;- constructor&quot;</text>
<text x="4283.150000000001" y="582" text-anchor="middle" dy="0.35em" font-size="13" font-weight="500" fill="#ff5722">&quot;📍 Node Types:&lt;br/&gt;method_decl, identifier,&lt;br/&gt;formal_parameters, block&quot;</text>
<text x="2141.25" y="738" text-anchor="middle" dy="0.35em" font-size="13" font-weight="500" fill="#e94560">&quot;📤 SymbolInfo:&lt;br/&gt;- name: String&lt;br/&gt;- kind: SymbolKind&lt;br/&gt;- location: Location&lt;br/&gt;- signature: Option&amp;lt;String&amp;gt;&quot;</text>
</svg>